<mxfile host="app.diagrams.net" modified="2022-02-09T08:36:16.200Z" agent="5.0 (Windows NT 10.0; Win64; x64) AppleWebKit/537.36 (KHTML, like Gecko) Chrome/97.0.4692.99 Safari/537.36" etag="loN2f6hq5sBPNLHGUAkJ" version="15.9.4" type="github">
  <diagram id="hLCgBCxkRpG6aqeo0idI" name="Page-1">
    <mxGraphModel dx="1249" dy="1838" grid="1" gridSize="10" guides="1" tooltips="1" connect="1" arrows="1" fold="1" page="1" pageScale="1" pageWidth="827" pageHeight="1169" math="0" shadow="0">
      <root>
        <mxCell id="0" />
        <mxCell id="1" parent="0" />
        <mxCell id="wVC-RXPw2CtrGCaKSUC5-1" value="" style="whiteSpace=wrap;html=1;aspect=fixed;direction=south;gradientColor=none;dashed=1;" vertex="1" parent="1">
          <mxGeometry x="65" y="100" width="320" height="320" as="geometry" />
        </mxCell>
        <mxCell id="wVC-RXPw2CtrGCaKSUC5-17" style="edgeStyle=none;rounded=0;orthogonalLoop=1;jettySize=auto;html=1;exitX=0.5;exitY=0;exitDx=0;exitDy=0;entryX=1;entryY=0.5;entryDx=0;entryDy=0;" edge="1" parent="1" source="wVC-RXPw2CtrGCaKSUC5-3" target="wVC-RXPw2CtrGCaKSUC5-8">
          <mxGeometry relative="1" as="geometry" />
        </mxCell>
        <mxCell id="wVC-RXPw2CtrGCaKSUC5-22" value="新客户回调事件" style="edgeLabel;html=1;align=center;verticalAlign=middle;resizable=0;points=[];" vertex="1" connectable="0" parent="wVC-RXPw2CtrGCaKSUC5-17">
          <mxGeometry x="0.171" y="-2" relative="1" as="geometry">
            <mxPoint as="offset" />
          </mxGeometry>
        </mxCell>
        <mxCell id="wVC-RXPw2CtrGCaKSUC5-3" value="圈量" style="rounded=0;whiteSpace=wrap;html=1;gradientColor=none;" vertex="1" parent="1">
          <mxGeometry x="510" y="210" width="100" height="60" as="geometry" />
        </mxCell>
        <mxCell id="wVC-RXPw2CtrGCaKSUC5-4" value="企微" style="rounded=0;whiteSpace=wrap;html=1;gradientColor=none;" vertex="1" parent="1">
          <mxGeometry x="670" y="210" width="110" height="60" as="geometry" />
        </mxCell>
        <mxCell id="wVC-RXPw2CtrGCaKSUC5-6" value="" style="endArrow=classic;startArrow=classic;html=1;rounded=0;exitX=1;exitY=0.5;exitDx=0;exitDy=0;entryX=0;entryY=0.5;entryDx=0;entryDy=0;" edge="1" parent="1" source="wVC-RXPw2CtrGCaKSUC5-3" target="wVC-RXPw2CtrGCaKSUC5-4">
          <mxGeometry width="50" height="50" relative="1" as="geometry">
            <mxPoint x="590" y="280" as="sourcePoint" />
            <mxPoint x="640" y="230" as="targetPoint" />
          </mxGeometry>
        </mxCell>
        <mxCell id="wVC-RXPw2CtrGCaKSUC5-7" value="数据同步服务" style="rounded=1;whiteSpace=wrap;html=1;gradientColor=none;" vertex="1" parent="1">
          <mxGeometry x="100" y="140" width="110" height="40" as="geometry" />
        </mxCell>
        <mxCell id="wVC-RXPw2CtrGCaKSUC5-8" value="圈量新加客户" style="rounded=1;whiteSpace=wrap;html=1;gradientColor=none;" vertex="1" parent="1">
          <mxGeometry x="250" y="140" width="110" height="40" as="geometry" />
        </mxCell>
        <mxCell id="wVC-RXPw2CtrGCaKSUC5-25" style="edgeStyle=none;rounded=0;orthogonalLoop=1;jettySize=auto;html=1;exitX=0.5;exitY=1;exitDx=0;exitDy=0;entryX=0.5;entryY=0;entryDx=0;entryDy=0;" edge="1" parent="1" source="wVC-RXPw2CtrGCaKSUC5-9" target="wVC-RXPw2CtrGCaKSUC5-10">
          <mxGeometry relative="1" as="geometry" />
        </mxCell>
        <mxCell id="wVC-RXPw2CtrGCaKSUC5-9" value="知策企业粉丝" style="rounded=0;whiteSpace=wrap;html=1;gradientColor=none;" vertex="1" parent="1">
          <mxGeometry x="65" y="-10" width="320" height="30" as="geometry" />
        </mxCell>
        <mxCell id="wVC-RXPw2CtrGCaKSUC5-18" value="同步数据" style="edgeStyle=none;rounded=0;orthogonalLoop=1;jettySize=auto;html=1;exitX=0.5;exitY=1;exitDx=0;exitDy=0;entryX=0.5;entryY=0;entryDx=0;entryDy=0;" edge="1" parent="1">
          <mxGeometry relative="1" as="geometry">
            <mxPoint x="222" y="80" as="sourcePoint" />
            <mxPoint x="152" y="140" as="targetPoint" />
          </mxGeometry>
        </mxCell>
        <mxCell id="wVC-RXPw2CtrGCaKSUC5-10" value="数仓中心" style="rounded=0;whiteSpace=wrap;html=1;gradientColor=none;" vertex="1" parent="1">
          <mxGeometry x="65" y="50" width="320" height="30" as="geometry" />
        </mxCell>
        <mxCell id="wVC-RXPw2CtrGCaKSUC5-11" value="clickhouse" style="shape=cylinder3;whiteSpace=wrap;html=1;boundedLbl=1;backgroundOutline=1;size=15;gradientColor=none;" vertex="1" parent="1">
          <mxGeometry x="170" y="220" width="110" height="70" as="geometry" />
        </mxCell>
        <mxCell id="wVC-RXPw2CtrGCaKSUC5-12" value="自动化投放" style="rounded=1;whiteSpace=wrap;html=1;gradientColor=none;" vertex="1" parent="1">
          <mxGeometry x="105" y="340" width="240" height="40" as="geometry" />
        </mxCell>
        <mxCell id="wVC-RXPw2CtrGCaKSUC5-13" value="" style="endArrow=classic;html=1;rounded=0;exitX=0.455;exitY=1;exitDx=0;exitDy=0;exitPerimeter=0;" edge="1" parent="1" source="wVC-RXPw2CtrGCaKSUC5-7" target="wVC-RXPw2CtrGCaKSUC5-11">
          <mxGeometry width="50" height="50" relative="1" as="geometry">
            <mxPoint x="140" y="240" as="sourcePoint" />
            <mxPoint x="180" y="200" as="targetPoint" />
          </mxGeometry>
        </mxCell>
        <mxCell id="wVC-RXPw2CtrGCaKSUC5-14" value="" style="endArrow=classic;html=1;rounded=0;exitX=0.5;exitY=1;exitDx=0;exitDy=0;" edge="1" parent="1" source="wVC-RXPw2CtrGCaKSUC5-8">
          <mxGeometry width="50" height="50" relative="1" as="geometry">
            <mxPoint x="299.9999999999999" y="190" as="sourcePoint" />
            <mxPoint x="260" y="220" as="targetPoint" />
          </mxGeometry>
        </mxCell>
        <mxCell id="wVC-RXPw2CtrGCaKSUC5-15" value="" style="endArrow=classic;html=1;rounded=0;exitX=0.5;exitY=1;exitDx=0;exitDy=0;exitPerimeter=0;" edge="1" parent="1" source="wVC-RXPw2CtrGCaKSUC5-11" target="wVC-RXPw2CtrGCaKSUC5-12">
          <mxGeometry width="50" height="50" relative="1" as="geometry">
            <mxPoint x="210" y="350" as="sourcePoint" />
            <mxPoint x="260" y="300" as="targetPoint" />
          </mxGeometry>
        </mxCell>
        <mxCell id="wVC-RXPw2CtrGCaKSUC5-16" value="" style="curved=1;endArrow=classic;html=1;rounded=0;exitX=1;exitY=0.5;exitDx=0;exitDy=0;entryX=0;entryY=0.5;entryDx=0;entryDy=0;" edge="1" parent="1" source="wVC-RXPw2CtrGCaKSUC5-12" target="wVC-RXPw2CtrGCaKSUC5-3">
          <mxGeometry width="50" height="50" relative="1" as="geometry">
            <mxPoint x="430" y="390" as="sourcePoint" />
            <mxPoint x="480" y="340" as="targetPoint" />
            <Array as="points">
              <mxPoint x="480" y="390" />
              <mxPoint x="410" y="270" />
            </Array>
          </mxGeometry>
        </mxCell>
        <mxCell id="wVC-RXPw2CtrGCaKSUC5-21" value="投放" style="edgeLabel;html=1;align=center;verticalAlign=middle;resizable=0;points=[];" vertex="1" connectable="0" parent="wVC-RXPw2CtrGCaKSUC5-16">
          <mxGeometry x="-0.0182" y="6" relative="1" as="geometry">
            <mxPoint as="offset" />
          </mxGeometry>
        </mxCell>
      </root>
    </mxGraphModel>
  </diagram>
</mxfile>
